# xmcd CD database file
#
# Track frame offsets:
#	150
#	21140
#	39042
#	59184
#	72641
#	93550
#	107092
#	129810
#	146058
#	165472
#	182348
#	199916
#	221595
#	235289
#	262081
#
# Disc length: 3624 seconds
#
# Revision: 0
# Processed by: cddbd v1.5.2PL0 Copyright (c) Steve Scherf et al.
# Submitted via: CDex 1.51
#
DISCID=dc0e260f
DTITLE=Victoria Hart - Whatever Happened To Romance?
DYEAR=2007
DGENRE=Jazz
TTITLE0=Whatever Happened To Romance?
TTITLE1=Sunny Afternoon
TTITLE2=Port In A Storm
TTITLE3=This Obsession
TTITLE4=Some Day
TTITLE5=Chocolates and Strawberries
TTITLE6=New Life
TTITLE7=Tell Me Something
TTITLE8=A Girl Like Me
TTITLE9=2 Time Blues
TTITLE10=Wonderful
TTITLE11=Smooth Talker
TTITLE12=Je M'Oublie
TTITLE13=Black Coffee
TTITLE14=Not My Fault
EXTD=YEAR: 2007
EXTT0=
EXTT1=
EXTT2=
EXTT3=
EXTT4=
EXTT5=
EXTT6=
EXTT7=
EXTT8=
EXTT9=
EXTT10=
EXTT11=
EXTT12=
EXTT13=
EXTT14=
PLAYORDER=
